# xmcd
#
# Track frame offsets:
#	150
#	18022
#	36817
#	53437
#	67560
#	81262
#	97667
#	114882
#	132372
#	149320
#	165712
#	180257
#	193607
#	207847
#	219262
#
# Disc length: 3110 seconds
# Revision: 5
# Processed by: cddbd v1.5.2PL0 Copyright (c) Steve Scherf et al.
# Submitted via: dBpowerAMP V12.0
#
DISCID=b00c240f
DTITLE=Various Artist - Country Love Songs 94
DYEAR=1994
DGENRE=Country
TTITLE0=Rodney Crowell - What Kind Of Love
TTITLE1=Tanya Tucker - Two Sparrows In A Hurricane
TTITLE2=Billy Dean - Only The Wind
TTITLE3=Jim Witter - Stolen Moments
TTITLE4=Greg Paul - If It Hadn't Been For You
TTITLE5=Prairie Oyster - Did You Fall In Love With Me
TTITLE6=Joe Diffie - Is It Cold In Here
TTITLE7=Doug Stone - Come In Out Of The Rain
TTITLE8=Vince Gill - Don't Let Our Love Start Slipping Away
TTITLE9=Lorrie Morgan - A Picture Of Me Without You
TTITLE10=Collin Raye - In This Life
TTITLE11=Joan Kennedy - I Need To Hear It From You
TTITLE12=Mark Collie - Born To Love You
TTITLE13=Tracy Byrd - Holdin Heaven
TTITLE14=McBride and The Ride - Love On The Loose
EXTD=
EXTT0=
EXTT1=
EXTT2=
EXTT3=
EXTT4=
EXTT5=
EXTT6=
EXTT7=
EXTT8=
EXTT9=
EXTT10=
EXTT11=
EXTT12=
EXTT13=
EXTT14=
PLAYORDER=
